<?xml version="1.0" ?><svg xmlns="http://www.w3.org/2000/svg" width="100" height="100" viewBox="0 0 100 100" fill="none"><path fill-rule="evenodd" clip-rule="evenodd" d="M44.4852 23.5465C47.3949 21.1444 51.5873 21.1019 54.5451 23.4444L76.9668 41.202C78.8828 42.7193 80 45.0293 80 47.4734V72C80 76.4183 76.4183 80 72 80H28C23.5817 80 20 76.4183 20 72V47.5298C20 45.1427 21.066 42.8803 22.9069 41.3605L44.4852 23.5465ZM52.0617 26.5801C50.5828 25.4088 48.4866 25.4301 47.0318 26.6311L25.4535 44.4452C24.533 45.205 24 46.3363 24 47.5298V72C24 74.2091 25.7909 76 28 76H72C74.2091 76 76 74.2091 76 72V47.4734C76 46.2513 75.4414 45.0964 74.4834 44.3377L52.0617 26.5801Z" fill="black"/><path fill-rule="evenodd" clip-rule="evenodd" d="M55.0874 51.3295C52.0439 49.46 48.2344 49.3557 45.0931 51.0559L40.9519 53.2973C39.9805 53.8231 38.7668 53.4619 38.241 52.4905C37.7152 51.5191 38.0765 50.3054 39.0479 49.7796L43.1891 47.5381C47.5868 45.1578 52.9202 45.3038 57.1811 47.9212L61.0467 50.2958C61.9879 50.874 62.2822 52.1057 61.704 53.0468C61.1259 53.988 59.8942 54.2823 58.9531 53.7042L55.0874 51.3295Z" fill="black"/><path fill-rule="evenodd" clip-rule="evenodd" d="M54.4863 59.3126C52.0093 56.7766 47.9719 56.649 45.3397 59.0235C44.5195 59.7634 43.2548 59.6983 42.515 58.8781C41.7751 58.0579 41.8402 56.7933 42.6604 56.0534C46.8871 52.2405 53.3703 52.4454 57.3478 56.5176L57.4308 56.6025C58.2026 57.3927 58.1877 58.6589 57.3975 59.4308C56.6073 60.2026 55.3411 60.1877 54.5693 59.3975L54.4863 59.3126Z" fill="black"/><path d="M53 64C53 65.6569 51.6569 67 50 67C48.3431 67 47 65.6569 47 64C47 62.3431 48.3431 61 50 61C51.6569 61 53 62.3431 53 64Z" fill="black"/></svg>